<svg id="Layer_1" data-name="Layer 1" xmlns="http://www.w3.org/2000/svg" xmlns:xlink="http://www.w3.org/1999/xlink" viewBox="0 0 400 400"><defs><style>.cls-1,.cls-11,.cls-18,.cls-25,.cls-26,.cls-4,.cls-5,.cls-6,.cls-9{fill:#fff;}.cls-1,.cls-19,.cls-22,.cls-25,.cls-6,.cls-7,.cls-8{stroke:#000;}.cls-1,.cls-11,.cls-19,.cls-2,.cls-20,.cls-21,.cls-22,.cls-23,.cls-24,.cls-25,.cls-26,.cls-3,.cls-5,.cls-6,.cls-7,.cls-8,.cls-9{stroke-miterlimit:10;}.cls-1,.cls-2,.cls-26{stroke-width:0.027px;}.cls-11,.cls-2,.cls-20,.cls-23,.cls-26,.cls-3,.cls-5,.cls-9{stroke:#fff;}.cls-3,.cls-6{stroke-width:1.207px;}.cls-5{stroke-width:0.027px;}.cls-19,.cls-20,.cls-21,.cls-22,.cls-23,.cls-24,.cls-7{fill:none;}.cls-20,.cls-21,.cls-24,.cls-25,.cls-7,.cls-8,.cls-9{stroke-width:0.5px;}.cls-10{fill:#a6a4a4;}.cls-11{stroke-width:0.126px;}.cls-12{fill:url(#linear-gradient);}.cls-13{fill:url(#linear-gradient-2);}.cls-14{fill:url(#linear-gradient-3);}.cls-15{fill:url(#linear-gradient-4);}.cls-16{opacity:0.2;}.cls-16,.cls-17,.cls-18{isolation:isolate;}.cls-17{opacity:0.12;}.cls-18{opacity:0.25;}.cls-21{stroke:#eaff00;}.cls-22{stroke-width:1.2px;}.cls-24{stroke:red;}</style><linearGradient id="linear-gradient" x1="318.55" y1="-66.865" x2="307.934" y2="-77.481" gradientTransform="matrix(1, 0, 0, -1, 0, 12)" gradientUnits="userSpaceOnUse"><stop offset="0" stop-color="#4896d1"/><stop offset="0.007" stop-color="#4998d2"/><stop offset="0.26" stop-color="#41b8ea"/><stop offset="0.512" stop-color="#3fc6f1"/><stop offset="0.76" stop-color="#55c8e8"/><stop offset="1" stop-color="#5ac8e7"/></linearGradient><linearGradient id="linear-gradient-2" x1="326.163" y1="-74.009" x2="310.857" y2="-74.009" gradientTransform="matrix(1, 0, 0, -1, 0, 12)" gradientUnits="userSpaceOnUse"><stop offset="0" stop-color="#fddf00"/><stop offset="0.409" stop-color="#fdbc11"/><stop offset="0.775" stop-color="#f9a31a"/><stop offset="1" stop-color="#f89b1c"/></linearGradient><linearGradient id="linear-gradient-3" x1="320.465" y1="-75.46" x2="306.069" y2="-89.856" gradientTransform="matrix(1, 0, 0, -1, 0, 12)" gradientUnits="userSpaceOnUse"><stop offset="0" stop-color="#ee3f49"/><stop offset="1" stop-color="#c11e63"/></linearGradient><linearGradient id="linear-gradient-4" x1="309.376" y1="-61.467" x2="315.805" y2="-67.896" gradientTransform="matrix(1, 0, 0, -1, 0, 12)" gradientUnits="userSpaceOnUse"><stop offset="0" stop-color="#319f71"/><stop offset="0.068" stop-color="#2ba670"/><stop offset="0.476" stop-color="#4ab870"/><stop offset="0.801" stop-color="#5dbc6a"/><stop offset="1" stop-color="#66bd68"/></linearGradient></defs><title>flannels-new-sheet-v4</title><path d="M49.573,255v-5.5h-1.8v-2.2h1.8v-1.7a2.605,2.605,0,0,1,2.8-2.9c.8,0,1.5.1,1.7.1v2h-1.2c-.9,0-1.1.4-1.1,1.1v1.5h2l-.3,2.2h-1.6v5.5"/><path d="M160.166,246.3v.3a7.257,7.257,0,0,1-7.3,7.3,6.979,6.979,0,0,1-4-1.2h.6a5.167,5.167,0,0,0,3.2-1.1,2.584,2.584,0,0,1-2.4-1.8h.5a1.7,1.7,0,0,0,.7-.1,2.568,2.568,0,0,1-2.1-2.5h0a2.133,2.133,0,0,0,1.2.3,2.609,2.609,0,0,1-1.1-2.1,2.01,2.01,0,0,1,.4-1.3,7.257,7.257,0,0,0,5.3,2.7c0-.2-.1-.4-.1-.6a2.582,2.582,0,0,1,2.6-2.6,2.732,2.732,0,0,1,1.9.8,4.418,4.418,0,0,0,1.6-.6,2.586,2.586,0,0,1-1.1,1.4,8.332,8.332,0,0,0,1.5-.4,5.135,5.135,0,0,1-1.4,1.5Z"/><circle class="cls-1" cx="16.246" cy="248.8" r="3.2"/><path class="cls-2" d="M22.346,246.3a3.541,3.541,0,0,0-1-2.6,4,4,0,0,0-2.6-1,43.385,43.385,0,0,0-5.1,0,3.541,3.541,0,0,0-2.6,1,4,4,0,0,0-1,2.6,43.387,43.387,0,0,0,0,5.1,3.541,3.541,0,0,0,1,2.6,4,4,0,0,0,2.6,1,43.385,43.385,0,0,0,5.1,0,3.541,3.541,0,0,0,2.6-1,4,4,0,0,0,1-2.6v-5.1Z"/><circle class="cls-1" cx="19.446" cy="245.5" r="0.7"/><path class="cls-3" d="M16.246,251.4a2.5,2.5,0,1,1,2.5-2.5,2.54,2.54,0,0,1-2.5,2.5Z"/><path d="M14.159,237.275h.909l1.091,1.636,1.091-1.636h.909v4H17.25V238.73l-1.091,1.636h0l-1.091-1.636v2.545h-.909Z"/><circle class="cls-1" cx="190.068" cy="248.9" r="3.2"/><path class="cls-2" d="M196.168,246.3a3.541,3.541,0,0,0-1-2.6,4,4,0,0,0-2.6-1,43.385,43.385,0,0,0-5.1,0,3.541,3.541,0,0,0-2.6,1,4,4,0,0,0-1,2.6,43.385,43.385,0,0,0,0,5.1,3.541,3.541,0,0,0,1,2.6,4,4,0,0,0,2.6,1,43.385,43.385,0,0,0,5.1,0,3.541,3.541,0,0,0,2.6-1,4,4,0,0,0,1-2.6v-5.1Z"/><circle class="cls-1" cx="193.268" cy="245.5" r="0.7"/><path class="cls-3" d="M190.068,251.4a2.5,2.5,0,1,1,2.5-2.5,2.54,2.54,0,0,1-2.5,2.5Z"/><path d="M186.889,237.159h.909l.909,2.727.909-2.727h.727l.909,2.727.909-2.727h.909l-1.273,4h-.727l-.909-2.545-.909,2.545h-.727Z"/><circle class="cls-1" cx="259.559" cy="248.8" r="3.2"/><path class="cls-2" d="M265.659,246.3a3.541,3.541,0,0,0-1-2.6,4,4,0,0,0-2.6-1,43.385,43.385,0,0,0-5.1,0,3.541,3.541,0,0,0-2.6,1,4,4,0,0,0-1,2.6,43.385,43.385,0,0,0,0,5.1,3.541,3.541,0,0,0,1,2.6,4,4,0,0,0,2.6,1,43.385,43.385,0,0,0,5.1,0,3.541,3.541,0,0,0,2.6-1,4,4,0,0,0,1-2.6,43.385,43.385,0,0,0,0-5.1Z"/><circle class="cls-1" cx="262.859" cy="245.5" r="0.7"/><path class="cls-3" d="M259.659,251.4a2.5,2.5,0,1,1,2.5-2.5,2.611,2.611,0,0,1-2.5,2.5Z"/><path class="cls-4" d="M49.573,217.7v-5.5h-1.8V210h1.8v-1.7a2.605,2.605,0,0,1,2.8-2.9c.8,0,1.5.1,1.7.1v2h-1.2c-.9,0-1.1.4-1.1,1.1v1.5h2l-.3,2.2h-1.6v5.5"/><path class="cls-4" d="M160.166,209v.3a7.257,7.257,0,0,1-7.3,7.3,6.979,6.979,0,0,1-4-1.2h.6a5.167,5.167,0,0,0,3.2-1.1,2.584,2.584,0,0,1-2.4-1.8h.5a1.7,1.7,0,0,0,.7-.1,2.568,2.568,0,0,1-2.1-2.5h0a2.133,2.133,0,0,0,1.2.3,2.609,2.609,0,0,1-1.1-2.1,2.01,2.01,0,0,1,.4-1.3,7.257,7.257,0,0,0,5.3,2.7c0-.2-.1-.4-.1-.6a2.582,2.582,0,0,1,2.6-2.6,2.732,2.732,0,0,1,1.9.8,4.418,4.418,0,0,0,1.6-.6,2.586,2.586,0,0,1-1.1,1.4,8.332,8.332,0,0,0,1.5-.4,5.135,5.135,0,0,1-1.4,1.5Z"/><path class="cls-4" d="M186.889,199.975h.909l.909,2.727.909-2.727h.727l.909,2.727.909-2.727h.909l-1.273,4h-.727l-.909-2.545-.909,2.545h-.727Z"/><circle class="cls-1" cx="190.068" cy="211.6" r="3.2"/><path class="cls-5" d="M196.168,209a3.541,3.541,0,0,0-1-2.6,4,4,0,0,0-2.6-1,43.385,43.385,0,0,0-5.1,0,3.541,3.541,0,0,0-2.6,1,4,4,0,0,0-1,2.6,43.385,43.385,0,0,0,0,5.1,3.541,3.541,0,0,0,1,2.6,4,4,0,0,0,2.6,1,43.385,43.385,0,0,0,5.1,0,3.541,3.541,0,0,0,2.6-1,4,4,0,0,0,1-2.6V209Z"/><circle class="cls-2" cx="193.268" cy="208.2" r="0.7"/><path class="cls-6" d="M190.068,214.1a2.5,2.5,0,1,1,2.5-2.5,2.476,2.476,0,0,1-2.5,2.5Z"/><circle class="cls-1" cx="259.559" cy="211.6" r="3.2"/><path class="cls-5" d="M265.659,209a3.541,3.541,0,0,0-1-2.6,4,4,0,0,0-2.6-1,43.385,43.385,0,0,0-5.1,0,3.541,3.541,0,0,0-2.6,1,4,4,0,0,0-1,2.6,43.385,43.385,0,0,0,0,5.1,3.541,3.541,0,0,0,1,2.6,4,4,0,0,0,2.6,1,43.385,43.385,0,0,0,5.1,0,3.541,3.541,0,0,0,2.6-1,4,4,0,0,0,1-2.6,43.385,43.385,0,0,0,0-5.1Z"/><circle class="cls-2" cx="262.859" cy="208.2" r="0.7"/><path class="cls-6" d="M259.659,214.1a2.5,2.5,0,1,1,2.5-2.5,2.54,2.54,0,0,1-2.5,2.5Z"/><path d="M80.967,247.379a3.842,3.842,0,0,1,.323-1.525,4.838,4.838,0,0,1,.927-1.4A4.425,4.425,0,0,1,83.8,243.4a5.7,5.7,0,0,1,2.177-.4,4.412,4.412,0,0,1,3.184,1.2,3.782,3.782,0,0,1,1.244,2.818,5.453,5.453,0,0,1-1.055,3.446,3.3,3.3,0,0,1-2.726,1.36,2.161,2.161,0,0,1-1.031-.256,1.572,1.572,0,0,1-.677-.622l-.488,1.927a3.667,3.667,0,0,1-.159.47c-.065.159-.137.311-.213.457s-.155.284-.232.415-.155.252-.232.366-.144.21-.2.287-.11.144-.159.2l-.073.1a.091.091,0,0,1-.1.037.086.086,0,0,1-.073-.073c0-.009-.006-.065-.018-.171s-.024-.217-.037-.335-.024-.271-.037-.457-.016-.368-.012-.543.016-.368.037-.579a4.93,4.93,0,0,1,.091-.585q.133-.573.9-3.818a2.082,2.082,0,0,1-.159-.47,2.2,2.2,0,0,1-.061-.445l-.012-.183a2.075,2.075,0,0,1,.4-1.3,1.175,1.175,0,0,1,.957-.518.864.864,0,0,1,.7.3,1.127,1.127,0,0,1,.25.75,2.844,2.844,0,0,1-.1.689q-.1.408-.274.939c-.113.354-.195.64-.244.86a1.052,1.052,0,0,0,.213.951,1.108,1.108,0,0,0,.9.4,1.832,1.832,0,0,0,1.592-1.092,5.222,5.222,0,0,0,.628-2.641,2.583,2.583,0,0,0-.768-1.933,2.944,2.944,0,0,0-2.147-.75,3.325,3.325,0,0,0-3.451,3.354,2.092,2.092,0,0,0,.464,1.378.4.4,0,0,1,.1.39,2.482,2.482,0,0,0-.073.281,2.616,2.616,0,0,1-.073.281.218.218,0,0,1-.122.177.277.277,0,0,1-.22-.006,2.041,2.041,0,0,1-1.079-1.006A3.663,3.663,0,0,1,80.967,247.379Z"/><path class="cls-4" d="M80.967,210.079a3.842,3.842,0,0,1,.323-1.525,4.838,4.838,0,0,1,.927-1.4A4.425,4.425,0,0,1,83.8,206.1a5.7,5.7,0,0,1,2.177-.4,4.412,4.412,0,0,1,3.184,1.2,3.782,3.782,0,0,1,1.244,2.818,5.453,5.453,0,0,1-1.055,3.446,3.3,3.3,0,0,1-2.726,1.36,2.161,2.161,0,0,1-1.031-.256,1.572,1.572,0,0,1-.677-.622l-.488,1.927a3.667,3.667,0,0,1-.159.47c-.065.159-.137.311-.213.457s-.155.284-.232.415-.155.252-.232.366-.144.21-.2.287-.11.144-.159.2l-.073.1a.091.091,0,0,1-.1.037.088.088,0,0,1-.073-.073c0-.009-.006-.065-.018-.171s-.024-.217-.037-.335-.024-.271-.037-.457-.016-.368-.012-.543.016-.368.037-.579a4.93,4.93,0,0,1,.091-.585q.133-.573.9-3.818a2.082,2.082,0,0,1-.159-.47,2.2,2.2,0,0,1-.061-.445l-.012-.183a2.075,2.075,0,0,1,.4-1.3,1.175,1.175,0,0,1,.957-.518.864.864,0,0,1,.7.3,1.127,1.127,0,0,1,.25.75,2.844,2.844,0,0,1-.1.689q-.1.408-.274.939c-.113.354-.195.64-.244.86a1.052,1.052,0,0,0,.213.951,1.108,1.108,0,0,0,.9.4,1.832,1.832,0,0,0,1.592-1.092,5.222,5.222,0,0,0,.628-2.641,2.583,2.583,0,0,0-.768-1.933,2.944,2.944,0,0,0-2.147-.75,3.325,3.325,0,0,0-3.451,3.354,2.092,2.092,0,0,0,.464,1.378.4.4,0,0,1,.1.39,2.482,2.482,0,0,0-.073.281,2.616,2.616,0,0,1-.073.281.218.218,0,0,1-.122.177.277.277,0,0,1-.22-.006,2.041,2.041,0,0,1-1.079-1.006A3.658,3.658,0,0,1,80.967,210.079Z"/><g id="Icons"><path d="M124.1,250c-.416-.811-.261-1.173.591-1.52.289-.118.562-.265.843-.4-.024-.09-.049-.179-.077-.265-.285.041-.579.073-.864.122-.64.118-.851-.061-.811-.689.024-.354.049-.709.065-1.063a2.97,2.97,0,0,0-1.634-3.027,3.625,3.625,0,0,0-3.52,0,2.97,2.97,0,0,0-1.634,3.027c.016.354.041.709.065,1.063.041.627-.171.807-.811.689-.285-.049-.579-.081-.864-.122-.029.086-.053.175-.077.265.281.134.554.281.843.4.852.346,1.006.709.591,1.52a4.331,4.331,0,0,1-2.717,2.237c.64.631,1.943.126,1.931,1.442a2.905,2.905,0,0,1,2.876.546,2.38,2.38,0,0,0,3.112,0,2.906,2.906,0,0,1,2.876-.546c-.012-1.316,1.292-.811,1.931-1.442A4.335,4.335,0,0,1,124.1,250Z"/></g><g id="Icons-2" data-name="Icons"><path class="cls-4" d="M124.1,212.7c-.416-.811-.261-1.173.591-1.52.289-.118.562-.265.843-.4-.024-.09-.049-.179-.077-.265-.285.041-.579.073-.864.122-.64.118-.851-.061-.811-.689.024-.354.049-.709.065-1.063a2.97,2.97,0,0,0-1.634-3.027,3.625,3.625,0,0,0-3.52,0,2.97,2.97,0,0,0-1.634,3.027c.016.354.041.709.065,1.063.041.627-.171.807-.811.689-.285-.049-.579-.081-.864-.122-.029.086-.053.175-.077.265.281.134.554.281.843.4.852.346,1.006.709.591,1.52a4.331,4.331,0,0,1-2.717,2.237c.64.631,1.943.126,1.931,1.442a2.905,2.905,0,0,1,2.876.546,2.38,2.38,0,0,0,3.112,0,2.906,2.906,0,0,1,2.876-.546c-.012-1.316,1.292-.811,1.931-1.442A4.335,4.335,0,0,1,124.1,212.7Z"/></g><path d="M227.521,247.819a7.16,7.16,0,0,1,.122,1.323,5.812,5.812,0,0,1-6.048,6.158,6.3,6.3,0,0,1,0-12.6,6.047,6.047,0,0,1,4.213,1.642l-1.776,1.776v0a3.45,3.45,0,0,0-2.437-.953,3.838,3.838,0,0,0,0,7.674,3.229,3.229,0,0,0,3.434-2.559h-3.434v-2.457Zm4.705.393v-1.969h-1.575v1.969h-1.969v1.575h1.969v1.969h1.575v-1.969h1.969v-1.575Z"/><path class="cls-4" d="M227.521,210.519a7.16,7.16,0,0,1,.122,1.323A5.812,5.812,0,0,1,221.595,218a6.3,6.3,0,1,1,0-12.6,6.047,6.047,0,0,1,4.213,1.642l-1.776,1.776v0a3.45,3.45,0,0,0-2.437-.953,3.838,3.838,0,0,0,0,7.674,3.229,3.229,0,0,0,3.434-2.559h-3.434v-2.457Zm4.705.393v-1.969h-1.575v1.969h-1.969v1.575h1.969v1.969h1.575v-1.969h1.969v-1.575Z"/><rect class="cls-7" x="42.723" y="15.033" width="11.9" height="8.5"/><path class="cls-7" d="M45.923,15.033c0-2.5,1.2-4.6,2.7-4.6s2.7,2.1,2.7,4.6"/><circle class="cls-7" cx="87.087" cy="15.333" r="5.4"/><line class="cls-7" x1="82.887" y1="19.533" x2="78.887" y2="23.533"/><path class="cls-7" d="M125.452,23.533h-10v-2.8a3.9,3.9,0,0,1,3.9-3.9h2.2a3.9,3.9,0,0,1,3.9,3.9Z"/><circle class="cls-7" cx="120.352" cy="12.733" r="2.8"/><path class="cls-7" d="M22.078,12.239c-1.562-1.759-4.246-1.289-5.9.334-.015.015-.015.015-.03,0-1.638-1.623-4.337-2.093-5.9-.334-1.441,1.623-1.062,3.958.288,5.672a57.892,57.892,0,0,0,5.611,5.611c.015.015.015.015.03,0a48.436,48.436,0,0,0,5.611-5.611C23.109,16.167,23.519,13.862,22.078,12.239Z"/><path class="cls-8" d="M22.078,306.624c-1.562-1.759-4.246-1.289-5.9.334-.015.015-.015.015-.03,0-1.638-1.623-4.337-2.093-5.9-.334-1.441,1.623-1.062,3.958.288,5.672a57.891,57.891,0,0,0,5.611,5.611c.015.015.015.015.03,0A48.437,48.437,0,0,0,21.79,312.3C23.109,310.552,23.519,308.247,22.078,306.624Z"/><path class="cls-9" d="M22.078,324.041c-1.562-1.759-4.246-1.289-5.9.334-.015.015-.015.015-.03,0-1.638-1.623-4.337-2.093-5.9-.334-1.441,1.623-1.062,3.958.288,5.672a57.891,57.891,0,0,0,5.611,5.611c.015.015.015.015.03,0a48.437,48.437,0,0,0,5.611-5.611C23.109,327.969,23.519,325.664,22.078,324.041Z"/><path d="M387,98.659H307.923A3.172,3.172,0,0,1,304.76,95.5V76.518a3.172,3.172,0,0,1,3.163-3.163H387a3.172,3.172,0,0,1,3.163,3.163V95.5A3.172,3.172,0,0,1,387,98.659Z"/><path class="cls-10" d="M387,73.861a2.66,2.66,0,0,1,2.657,2.657V95.5A2.66,2.66,0,0,1,387,98.153H307.923a2.66,2.66,0,0,1-2.657-2.657V76.518a2.66,2.66,0,0,1,2.657-2.657H387m0-.506H307.923a3.172,3.172,0,0,0-3.163,3.163V95.5a3.172,3.172,0,0,0,3.163,3.163H387A3.172,3.172,0,0,0,390.16,95.5V76.518A3.172,3.172,0,0,0,387,73.355Z"/><path class="cls-11" d="M334.757,79.835a1.715,1.715,0,0,1-.471,1.267,1.841,1.841,0,0,1-1.394.562,1.983,1.983,0,1,1,0-3.966,1.956,1.956,0,0,1,.779.159,1.566,1.566,0,0,1,.594.424l-.334.334a1.281,1.281,0,0,0-1.039-.45,1.516,1.516,0,1,0,1.06,2.608A1.189,1.189,0,0,0,334.27,80h-1.378v-.456h1.839A1.7,1.7,0,0,1,334.757,79.835Z"/><path class="cls-11" d="M337.672,78.25h-1.728v1.2H337.5v.456h-1.559v1.2h1.728v.466h-2.216v-3.8h2.216Z"/><path class="cls-11" d="M339.729,81.579h-.488V78.25h-1.06v-.466h2.608v.466h-1.06Z"/><path class="cls-11" d="M342.676,81.579v-3.8h.487v3.8Z"/><path class="cls-11" d="M345.327,81.579h-.488V78.25h-1.06v-.466h2.608v.466h-1.06Z"/><path class="cls-11" d="M351.325,81.088a1.971,1.971,0,0,1-2.783,0,2.05,2.05,0,0,1,0-2.814,1.964,1.964,0,0,1,2.78,0,2.042,2.042,0,0,1,0,2.811Zm-2.423-.317a1.458,1.458,0,0,0,2.062,0,1.616,1.616,0,0,0,0-2.178,1.458,1.458,0,0,0-2.062,0,1.619,1.619,0,0,0,0,2.178Z"/><path class="cls-11" d="M352.568,81.579v-3.8h.594l1.845,2.953h.021l-.021-.731V77.784h.488v3.8h-.509l-1.93-3.1h-.021l.021.731v2.364Z"/><path class="cls-4" d="M347.862,87.115a2.691,2.691,0,1,0,2.7,2.69A2.652,2.652,0,0,0,347.862,87.115Zm0,4.321a1.635,1.635,0,1,1,1.518-1.631A1.557,1.557,0,0,1,347.862,91.436Zm-5.891-4.321a2.691,2.691,0,1,0,2.7,2.69A2.652,2.652,0,0,0,341.971,87.115Zm0,4.321a1.635,1.635,0,1,1,1.518-1.631A1.557,1.557,0,0,1,341.971,91.436Zm-7.009-3.495v1.141h2.731a2.385,2.385,0,0,1-.622,1.437,2.8,2.8,0,0,1-2.11.836,3.037,3.037,0,0,1,0-6.074,2.914,2.914,0,0,1,2.059.815l.8-.805a3.984,3.984,0,0,0-2.864-1.152,4.178,4.178,0,1,0,0,8.356,3.823,3.823,0,0,0,2.915-1.172,3.772,3.772,0,0,0,.989-2.67,3.693,3.693,0,0,0-.061-.713h-3.842Zm28.662.886a2.5,2.5,0,0,0-2.3-1.712,2.557,2.557,0,0,0-2.538,2.69,2.633,2.633,0,0,0,2.67,2.691A2.676,2.676,0,0,0,363.7,91.3l-.917-.611a1.538,1.538,0,0,1-1.325.744,1.37,1.37,0,0,1-1.3-.815l3.6-1.488Zm-3.669.9a1.475,1.475,0,0,1,1.406-1.569,1.042,1.042,0,0,1,1,.571Zm-2.925,2.609h1.182V84.425H357.03Zm-1.936-4.617h-.041a1.865,1.865,0,0,0-1.417-.6,2.693,2.693,0,0,0,0,5.381,1.835,1.835,0,0,0,1.417-.611h.041v.387c0,1.029-.55,1.58-1.437,1.58a1.487,1.487,0,0,1-1.355-.958l-1.029.428a2.565,2.565,0,0,0,2.385,1.59c1.386,0,2.558-.815,2.558-2.8V87.278H355.1v.438Zm-1.356,3.72a1.636,1.636,0,0,1,0-3.261,1.644,1.644,0,0,1,0,3.261Zm15.424-7.011h-2.828v7.908h1.18v-3h1.648a2.46,2.46,0,1,0,0-4.912Zm.03,3.811h-1.679V85.525h1.679a1.356,1.356,0,1,1,0,2.711Zm7.3-1.135a2.214,2.214,0,0,0-2.106,1.211l1.048.438a1.118,1.118,0,0,1,1.078-.58,1.136,1.136,0,0,1,1.241,1.017v.081a2.615,2.615,0,0,0-1.231-.305c-1.129,0-2.279.621-2.279,1.78a1.827,1.827,0,0,0,1.964,1.74,1.666,1.666,0,0,0,1.506-.773h.041v.61h1.139V89.288A2.169,2.169,0,0,0,376.487,87.1Zm-.143,4.334c-.387,0-.926-.193-.926-.671,0-.61.671-.844,1.251-.844a2.1,2.1,0,0,1,1.078.265A1.429,1.429,0,0,1,376.344,91.435Zm6.7-4.162L381.686,90.7h-.041l-1.4-3.429h-1.272l2.106,4.792-1.2,2.666h1.231l3.246-7.458Zm-10.632,5.06h1.18V84.425h-1.18Z"/><path class="cls-12" d="M311.361,78.124a1.267,1.267,0,0,0-.293.889V93a1.267,1.267,0,0,0,.293.889l.047.046,7.837-7.837v-.184l-7.837-7.837Z"/><path class="cls-13" d="M321.857,88.714,319.245,86.1v-.184l2.613-2.613.059.034,3.1,1.759a.961.961,0,0,1,0,1.827l-3.1,1.759Z"/><path class="cls-14" d="M321.917,88.68l-2.672-2.672-7.884,7.884a1.029,1.029,0,0,0,1.315.039l9.241-5.251"/><path class="cls-15" d="M321.917,83.336l-9.241-5.251a1.029,1.029,0,0,0-1.315.039l7.884,7.884Z"/><path class="cls-16" d="M321.858,88.621l-9.182,5.217a1.054,1.054,0,0,1-1.267.007h0l-.047.047h0l.047.046h0a1.052,1.052,0,0,0,1.267-.007l9.241-5.251Z"/><path class="cls-17" d="M311.361,93.8a1.267,1.267,0,0,1-.293-.889V93a1.267,1.267,0,0,0,.293.889l.047-.047Z"/><path class="cls-17" d="M325.012,86.829l-3.154,1.792.059.059,3.1-1.759a1.109,1.109,0,0,0,.663-.913h0A1.178,1.178,0,0,1,325.012,86.829Z"/><path class="cls-18" d="M312.676,78.178l12.336,7.009a1.177,1.177,0,0,1,.663.821h0a1.109,1.109,0,0,0-.663-.913l-12.336-7.009c-.884-.5-1.607-.085-1.607.928v.092C311.069,78.093,311.792,77.675,312.676,78.178Z"/><path d="M383.4,10.721H319.15c-.193,0-.385.005-.581.008a8.272,8.272,0,0,0-1.266.112,4.207,4.207,0,0,0-1.2.4,4.057,4.057,0,0,0-1.023.745,3.928,3.928,0,0,0-.744,1.024,4.18,4.18,0,0,0-.395,1.2,8.249,8.249,0,0,0-.113,1.265c-.006.194-.007.388-.01.582v14.6c0,.2,0,.386.01.582a8.249,8.249,0,0,0,.113,1.265,4.147,4.147,0,0,0,.395,1.2,3.932,3.932,0,0,0,.744,1.02,3.974,3.974,0,0,0,1.023.745,4.244,4.244,0,0,0,1.2.4,8.532,8.532,0,0,0,1.266.112c.2,0,.387.007.581.007h64.933c.193,0,.39,0,.582-.007a8.374,8.374,0,0,0,1.264-.112,4.287,4.287,0,0,0,1.206-.4,3.963,3.963,0,0,0,1.022-.745,4.021,4.021,0,0,0,.746-1.02,4.157,4.157,0,0,0,.391-1.2,8.514,8.514,0,0,0,.117-1.265c0-.2,0-.386,0-.582.005-.23.005-.458.005-.691V16.746c0-.231,0-.461-.005-.69,0-.194,0-.388,0-.582a8.647,8.647,0,0,0-.117-1.265,4.2,4.2,0,0,0-.391-1.2,4.083,4.083,0,0,0-1.768-1.769,4.27,4.27,0,0,0-1.206-.4,8.235,8.235,0,0,0-1.264-.112c-.193,0-.39-.007-.582-.008Z"/><path class="cls-4" d="M319.154,35.439c-.192,0-.38,0-.571-.007a8.058,8.058,0,0,1-1.181-.1,3.724,3.724,0,0,1-1.047-.346,3.529,3.529,0,0,1-1.528-1.524,3.605,3.605,0,0,1-.343-1.047,7.847,7.847,0,0,1-.105-1.185c0-.133-.009-.577-.009-.577V16.056s.006-.437.009-.565a7.821,7.821,0,0,1,.105-1.183,3.634,3.634,0,0,1,.343-1.05,3.4,3.4,0,0,1,.641-.883,3.543,3.543,0,0,1,.886-.646,3.7,3.7,0,0,1,1.044-.344,7.977,7.977,0,0,1,1.185-.1l.57-.008h64.926l.577.008a7.83,7.83,0,0,1,1.174.1,3.75,3.75,0,0,1,1.056.346,3.533,3.533,0,0,1,1.526,1.529,3.6,3.6,0,0,1,.338,1.042,8.214,8.214,0,0,1,.11,1.192c0,.179,0,.371,0,.562.005.237.005.462.005.69V29.967c0,.23,0,.453-.005.679,0,.2,0,.394,0,.587a7.928,7.928,0,0,1-.108,1.171,3.631,3.631,0,0,1-.341,1.055,3.568,3.568,0,0,1-1.526,1.521,3.7,3.7,0,0,1-1.054.347,7.923,7.923,0,0,1-1.181.1c-.185,0-.379.007-.567.007H319.154Z"/><g id="_Group_" data-name=" Group "><g id="_Group_2" data-name=" Group 2"><g id="_Group_3" data-name=" Group 3"><path id="_Path_" data-name=" Path " d="M329.611,23.287a3.252,3.252,0,0,1,1.548-2.728,3.33,3.33,0,0,0-2.622-1.418c-1.1-.116-2.173.66-2.735.66s-1.439-.649-2.371-.629a3.5,3.5,0,0,0-2.939,1.792c-1.271,2.2-.323,5.433.894,7.211.609.871,1.321,1.843,2.252,1.809.911-.038,1.252-.581,2.352-.581s1.409.581,2.359.559c.978-.016,1.594-.875,2.182-1.754a7.2,7.2,0,0,0,1-2.032A3.137,3.137,0,0,1,329.611,23.287Z"/><path id="_Path_2" data-name=" Path 2" d="M327.816,17.972a3.2,3.2,0,0,0,.732-2.293,3.258,3.258,0,0,0-2.107,1.09,3.042,3.042,0,0,0-.751,2.208A2.688,2.688,0,0,0,327.816,17.972Z"/></g></g><path d="M340.544,27.867h-2.99l-.718,2.121h-1.267l2.832-7.845h1.316l2.832,7.845h-1.288Zm-2.681-.978h2.37l-1.169-3.441h-.033Z"/><path d="M348.666,27.128c0,1.777-.951,2.919-2.387,2.919a1.94,1.94,0,0,1-1.8-1h-.027v2.833h-1.174V24.267h1.136v.951h.022a2.029,2.029,0,0,1,1.821-1.011C347.71,24.208,348.666,25.356,348.666,27.128Zm-1.206,0c0-1.158-.6-1.919-1.512-1.919-.9,0-1.5.777-1.5,1.919s.6,1.924,1.5,1.924c.913,0,1.512-.755,1.512-1.924Z"/><path d="M354.962,27.128c0,1.777-.952,2.919-2.387,2.919a1.94,1.94,0,0,1-1.8-1h-.027v2.833h-1.174V24.267h1.136v.951h.022a2.029,2.029,0,0,1,1.821-1.011C354.005,24.208,354.962,25.356,354.962,27.128Zm-1.207,0c0-1.158-.6-1.919-1.512-1.919-.9,0-1.5.777-1.5,1.919s.6,1.924,1.5,1.924C353.157,29.053,353.755,28.3,353.755,27.128Z"/><path d="M359.122,27.8c.087.778.843,1.289,1.876,1.289.99,0,1.7-.511,1.7-1.212,0-.609-.429-.974-1.446-1.223l-1.017-.245c-1.441-.348-2.109-1.022-2.109-2.115,0-1.354,1.18-2.283,2.854-2.283,1.658,0,2.8.93,2.833,2.283H362.63c-.071-.783-.718-1.256-1.664-1.256s-1.593.478-1.593,1.174c0,.555.413.881,1.425,1.131l.864.212c1.61.381,2.278,1.027,2.278,2.175,0,1.468-1.169,2.387-3.028,2.387-1.74,0-2.915-.9-2.99-2.317Z"/><path d="M366.474,22.914v1.354h1.088v.93h-1.088v3.153c0,.49.218.718.7.718a3.558,3.558,0,0,0,.386-.027v.924a3.238,3.238,0,0,1-.652.054c-1.158,0-1.61-.435-1.61-1.544V25.2h-.832v-.93h.832V22.913h1.18Z"/><path d="M368.191,27.128a2.721,2.721,0,1,1,5.426,0,2.721,2.721,0,1,1-5.426,0Zm4.23,0c0-1.235-.566-1.963-1.517-1.963s-1.517.734-1.517,1.963.566,1.963,1.517,1.963,1.517-.723,1.517-1.963Z"/><path d="M374.585,24.268h1.12v.974h.027a1.363,1.363,0,0,1,1.376-1.033,1.814,1.814,0,0,1,.4.044v1.1a1.654,1.654,0,0,0-.528-.071,1.183,1.183,0,0,0-1.23,1.134,1.231,1.231,0,0,0,.007.182v3.393h-1.174Z"/><path d="M382.924,28.308a2.3,2.3,0,0,1-2.463,1.751,2.6,2.6,0,0,1-2.7-2.9c0-1.794,1.038-2.958,2.647-2.958a2.518,2.518,0,0,1,2.578,2.821v.4h-4.04v.071a1.489,1.489,0,0,0,1.352,1.615,1.651,1.651,0,0,0,.186,0,1.3,1.3,0,0,0,1.321-.805ZM378.955,26.6h2.86a1.375,1.375,0,0,0-1.3-1.45c-.035,0-.071,0-.106,0a1.448,1.448,0,0,0-1.457,1.439Z"/></g><g id="_Group_4" data-name=" Group 4"><path d="M337.716,16.237a1.667,1.667,0,0,1,1.783,1.544,1.644,1.644,0,0,1-.009.329,1.676,1.676,0,0,1-1.774,1.9h-1.362v-3.77Zm-.776,3.237h.711a1.186,1.186,0,0,0,1.254-1.112,1.162,1.162,0,0,0-.011-.243,1.189,1.189,0,0,0-1.016-1.339,1.229,1.229,0,0,0-.227-.009h-.711v2.7Z"/><path d="M340.151,18.583a1.348,1.348,0,0,1,2.683-.257,1.38,1.38,0,0,1,0,.257,1.348,1.348,0,1,1-2.683.261A1.42,1.42,0,0,1,340.151,18.583Zm2.106,0c0-.617-.277-.977-.763-.977s-.763.361-.763.977.275.979.763.979.763-.359.763-.979Z"/><path d="M346.4,20.007h-.582l-.588-2.095h-.044l-.585,2.095h-.577l-.784-2.845h.569l.51,2.171h.042l.585-2.171h.539l.585,2.171h.044l.507-2.171h.561Z"/><path d="M347.842,17.162h.54v.452h.042a.852.852,0,0,1,.849-.507.925.925,0,0,1,.992.853.939.939,0,0,1-.007.2v1.842H349.7v-1.7c0-.457-.2-.685-.614-.685a.652.652,0,0,0-.682.622.545.545,0,0,0,0,.1v1.664h-.561V17.162Z"/><path d="M351.152,16.052h.561v3.955h-.561Z"/><path d="M352.494,18.583a1.348,1.348,0,0,1,2.683-.257,1.38,1.38,0,0,1,0,.257,1.348,1.348,0,1,1-2.683.261A1.42,1.42,0,0,1,352.494,18.583Zm2.106,0c0-.617-.277-.977-.763-.977s-.763.361-.763.977.275.979.763.979S354.6,19.2,354.6,18.583Z"/><path d="M355.769,19.2c0-.512.381-.807,1.058-.849l.771-.044v-.246c0-.3-.2-.47-.582-.47-.313,0-.531.115-.593.316h-.544c.057-.489.517-.8,1.162-.8.713,0,1.115.355,1.115.956v1.944h-.54v-.4h-.044a.957.957,0,0,1-.854.447.86.86,0,0,1-.944-.766A.63.63,0,0,1,355.769,19.2Zm1.828-.244v-.238l-.7.044c-.392.026-.569.159-.569.41s.222.405.528.405a.672.672,0,0,0,.735-.6Z"/><path d="M358.894,18.583c0-.9.462-1.468,1.181-1.468a.936.936,0,0,1,.872.5h.042V16.052h.561v3.955h-.538v-.449h-.044a.985.985,0,0,1-.893.5C359.351,20.054,358.894,19.484,358.894,18.583Zm.58,0c0,.6.284.966.76.966s.766-.368.766-.964-.3-.966-.766-.966-.76.366-.76.964Z"/><path d="M363.874,18.583a1.348,1.348,0,0,1,2.683-.257,1.38,1.38,0,0,1,0,.257,1.348,1.348,0,1,1-2.683.261A1.262,1.262,0,0,1,363.874,18.583Zm2.105,0c0-.617-.277-.977-.763-.977s-.763.361-.763.977.275.979.763.979S365.979,19.2,365.979,18.583Z"/><path d="M367.31,17.162h.54v.452h.042a.852.852,0,0,1,.849-.507.925.925,0,0,1,.992.853.939.939,0,0,1-.007.2v1.842h-.561v-1.7c0-.457-.2-.685-.614-.685a.652.652,0,0,0-.682.622.545.545,0,0,0,0,.1v1.664h-.561V17.162Z"/><path d="M372.9,16.454v.721h.616v.473H372.9v1.463c0,.3.123.428.4.428a1.905,1.905,0,0,0,.214-.013v.468a1.842,1.842,0,0,1-.3.029c-.624,0-.873-.22-.873-.768V17.648h-.452v-.473h.452v-.721Z"/><path d="M374.282,16.052h.556V17.62h.044a.876.876,0,0,1,.867-.51.937.937,0,0,1,.98,1.061v1.837h-.562v-1.7c0-.454-.212-.685-.608-.685a.665.665,0,0,0-.717.608.713.713,0,0,0,0,.113v1.661h-.561Z"/><path d="M380,19.239a1.155,1.155,0,0,1-1.233.823,1.292,1.292,0,0,1-1.326-1.258,1.246,1.246,0,0,1,.012-.211,1.313,1.313,0,0,1,1.126-1.475,1.425,1.425,0,0,1,.185-.012c.792,0,1.269.541,1.269,1.434v.2h-2.009v.031a.751.751,0,0,0,.686.812l.071,0a.682.682,0,0,0,.677-.345Zm-1.974-.917h1.437a.686.686,0,0,0-.634-.735c-.022,0-.044,0-.066,0a.728.728,0,0,0-.737.718v.019Z"/></g><path class="cls-10" d="M383.4,40.721H319.15c-.193,0-.385.005-.581.008a8.272,8.272,0,0,0-1.266.112,4.207,4.207,0,0,0-1.2.4,4.057,4.057,0,0,0-1.023.745,3.928,3.928,0,0,0-.744,1.024,4.18,4.18,0,0,0-.395,1.2,8.249,8.249,0,0,0-.113,1.265c-.006.194-.007.388-.01.582v14.6c0,.2,0,.386.01.582a8.249,8.249,0,0,0,.113,1.265,4.147,4.147,0,0,0,.395,1.2,3.932,3.932,0,0,0,.744,1.02,3.974,3.974,0,0,0,1.023.745,4.244,4.244,0,0,0,1.2.4,8.532,8.532,0,0,0,1.266.112c.2,0,.387.007.581.007h64.933c.193,0,.39,0,.582-.007a8.373,8.373,0,0,0,1.264-.112,4.286,4.286,0,0,0,1.206-.4,3.963,3.963,0,0,0,1.022-.745,4.021,4.021,0,0,0,.746-1.02,4.157,4.157,0,0,0,.391-1.2,8.514,8.514,0,0,0,.117-1.265c0-.2,0-.386,0-.582.005-.23.005-.458.005-.691V46.746c0-.231,0-.461-.005-.69,0-.194,0-.388,0-.582a8.647,8.647,0,0,0-.117-1.265,4.2,4.2,0,0,0-.391-1.2,4.083,4.083,0,0,0-1.768-1.769,4.27,4.27,0,0,0-1.206-.4,8.235,8.235,0,0,0-1.264-.112c-.193,0-.39-.007-.582-.008Z"/><path d="M319.154,65.439c-.192,0-.38,0-.571-.007a8.058,8.058,0,0,1-1.181-.1,3.725,3.725,0,0,1-1.047-.346,3.406,3.406,0,0,1-.883-.642,3.372,3.372,0,0,1-.645-.882,3.605,3.605,0,0,1-.343-1.047,7.847,7.847,0,0,1-.105-1.185c0-.133-.009-.577-.009-.577V46.056s.006-.437.009-.565a7.821,7.821,0,0,1,.105-1.183,3.634,3.634,0,0,1,.343-1.05,3.4,3.4,0,0,1,.641-.883,3.543,3.543,0,0,1,.886-.646,3.7,3.7,0,0,1,1.044-.344,7.977,7.977,0,0,1,1.185-.1l.57-.008h64.926l.577.008a7.83,7.83,0,0,1,1.174.1,3.75,3.75,0,0,1,1.056.346,3.533,3.533,0,0,1,1.526,1.529,3.6,3.6,0,0,1,.338,1.042,8.214,8.214,0,0,1,.11,1.192c0,.179,0,.371,0,.562.005.237.005.462.005.69V59.967c0,.23,0,.453-.005.679,0,.205,0,.394,0,.587a7.928,7.928,0,0,1-.108,1.171,3.631,3.631,0,0,1-.341,1.055,3.568,3.568,0,0,1-1.526,1.521,3.7,3.7,0,0,1-1.054.347,7.922,7.922,0,0,1-1.181.1c-.185,0-.379.007-.567.007H319.154Z"/><g id="_Group_2-2" data-name=" Group "><g id="_Group_2-3" data-name=" Group 2"><g id="_Group_3-2" data-name=" Group 3"><path id="_Path_2-2" data-name=" Path " class="cls-4" d="M329.467,53.547a3.126,3.126,0,0,1,1.489-2.623,3.2,3.2,0,0,0-2.522-1.363c-1.061-.111-2.089.635-2.63.635s-1.383-.624-2.28-.6a3.358,3.358,0,0,0-2.826,1.723c-1.222,2.115-.31,5.224.86,6.934.586.837,1.27,1.773,2.165,1.739.876-.036,1.2-.559,2.261-.559s1.355.559,2.269.538c.94-.015,1.533-.841,2.1-1.686a6.9,6.9,0,0,0,.959-1.954A3.021,3.021,0,0,1,329.467,53.547Z"/><path id="_Path_2-3" data-name=" Path 2" class="cls-4" d="M327.741,48.436a3.077,3.077,0,0,0,.7-2.2,3.132,3.132,0,0,0-2.026,1.048A2.932,2.932,0,0,0,325.7,49.4,2.589,2.589,0,0,0,327.741,48.436Z"/></g></g><path class="cls-4" d="M340.544,57.867h-2.99l-.718,2.121h-1.267l2.832-7.845h1.316l2.832,7.845h-1.288Zm-2.681-.978h2.37l-1.169-3.441h-.033Z"/><path class="cls-4" d="M348.667,57.128c0,1.777-.951,2.919-2.387,2.919a1.94,1.94,0,0,1-1.8-1h-.027v2.833h-1.174V54.267h1.136v.951h.022a2.029,2.029,0,0,1,1.821-1.011C347.71,54.208,348.667,55.356,348.667,57.128Zm-1.207,0c0-1.158-.6-1.919-1.512-1.919-.9,0-1.5.777-1.5,1.919s.6,1.924,1.5,1.924C346.862,59.053,347.46,58.3,347.46,57.128Z"/><path class="cls-4" d="M354.962,57.128c0,1.777-.951,2.919-2.387,2.919a1.94,1.94,0,0,1-1.8-1h-.027v2.833h-1.174V54.267h1.136v.951h.022a2.029,2.029,0,0,1,1.821-1.011C354.005,54.208,354.962,55.356,354.962,57.128Zm-1.207,0c0-1.158-.6-1.919-1.512-1.919-.9,0-1.5.777-1.5,1.919s.6,1.924,1.5,1.924c.914,0,1.512-.755,1.512-1.924Z"/><path class="cls-4" d="M359.123,57.8c.087.778.843,1.289,1.876,1.289.99,0,1.7-.511,1.7-1.212,0-.609-.429-.974-1.446-1.223l-1.017-.245c-1.441-.348-2.109-1.022-2.109-2.115,0-1.354,1.18-2.283,2.855-2.283,1.658,0,2.794.93,2.832,2.283h-1.185c-.071-.783-.718-1.256-1.664-1.256s-1.593.478-1.593,1.174c0,.555.413.881,1.425,1.131l.864.212c1.61.381,2.278,1.027,2.278,2.175,0,1.468-1.169,2.387-3.029,2.387-1.74,0-2.915-.9-2.99-2.317Z"/><path class="cls-4" d="M366.474,52.914v1.354h1.088v.93h-1.088v3.153c0,.49.218.718.7.718a3.558,3.558,0,0,0,.386-.027v.924a3.238,3.238,0,0,1-.652.054c-1.158,0-1.61-.435-1.61-1.544V55.2h-.832v-.93h.832V52.913h1.18Z"/><path class="cls-4" d="M368.192,57.128a2.721,2.721,0,1,1,5.426,0,2.721,2.721,0,1,1-5.426,0Zm4.23,0c0-1.235-.566-1.963-1.517-1.963s-1.516.734-1.516,1.963.565,1.963,1.516,1.963,1.517-.723,1.517-1.963Z"/><path class="cls-4" d="M374.586,54.268h1.12v.974h.027a1.363,1.363,0,0,1,1.376-1.033,1.814,1.814,0,0,1,.4.044v1.1a1.655,1.655,0,0,0-.528-.071,1.183,1.183,0,0,0-1.23,1.134,1.231,1.231,0,0,0,.007.182v3.393h-1.174V54.268Z"/><path class="cls-4" d="M382.924,58.308a2.3,2.3,0,0,1-2.463,1.751,2.6,2.6,0,0,1-2.7-2.9c0-1.794,1.038-2.958,2.647-2.958a2.518,2.518,0,0,1,2.578,2.821v.4h-4.04v.071a1.489,1.489,0,0,0,1.352,1.615,1.651,1.651,0,0,0,.186.005,1.3,1.3,0,0,0,1.321-.805ZM378.955,56.6h2.86a1.375,1.375,0,0,0-1.3-1.45c-.035,0-.071,0-.106,0a1.448,1.448,0,0,0-1.457,1.439Z"/></g><g id="_Group_4-2" data-name=" Group 4"><path class="cls-4" d="M337.716,46.237a1.667,1.667,0,0,1,1.783,1.544,1.644,1.644,0,0,1-.009.329,1.676,1.676,0,0,1-1.774,1.9h-1.362v-3.77Zm-.776,3.237h.711a1.186,1.186,0,0,0,1.254-1.112,1.162,1.162,0,0,0-.011-.243,1.189,1.189,0,0,0-1.016-1.339,1.229,1.229,0,0,0-.227-.009h-.711v2.7Z"/><path class="cls-4" d="M340.151,48.583a1.348,1.348,0,0,1,2.683-.257,1.38,1.38,0,0,1,0,.257,1.348,1.348,0,1,1-2.683.261A1.42,1.42,0,0,1,340.151,48.583Zm2.106,0c0-.617-.277-.977-.763-.977s-.763.361-.763.977.275.979.763.979.763-.359.763-.979Z"/><path class="cls-4" d="M346.4,50.007h-.582l-.588-2.1h-.044l-.585,2.1h-.577l-.784-2.845h.569l.51,2.171h.042l.585-2.171h.539l.585,2.171h.044l.507-2.171h.561Z"/><path class="cls-4" d="M347.842,47.162h.54v.452h.042a.852.852,0,0,1,.849-.507.925.925,0,0,1,.992.853.939.939,0,0,1-.007.205v1.842H349.7v-1.7c0-.457-.2-.685-.614-.685a.652.652,0,0,0-.682.622.545.545,0,0,0,0,.1v1.664h-.561V47.162Z"/><path class="cls-4" d="M351.152,46.052h.561v3.955h-.561Z"/><path class="cls-4" d="M352.494,48.583a1.348,1.348,0,0,1,2.683-.257,1.38,1.38,0,0,1,0,.257,1.348,1.348,0,1,1-2.683.261A1.42,1.42,0,0,1,352.494,48.583Zm2.106,0c0-.617-.277-.977-.763-.977s-.763.361-.763.977.275.979.763.979S354.6,49.2,354.6,48.583Z"/><path class="cls-4" d="M355.769,49.2c0-.512.381-.807,1.058-.849l.771-.044v-.246c0-.3-.2-.47-.582-.47-.313,0-.531.115-.593.316h-.544c.057-.489.517-.8,1.162-.8.713,0,1.115.355,1.115.956v1.944h-.54v-.4h-.044a.957.957,0,0,1-.854.447.86.86,0,0,1-.944-.766A.63.63,0,0,1,355.769,49.2Zm1.828-.244v-.238l-.7.044c-.392.026-.569.159-.569.41s.222.4.528.4a.672.672,0,0,0,.735-.6Z"/><path class="cls-4" d="M358.894,48.583c0-.9.462-1.468,1.181-1.468a.936.936,0,0,1,.872.5h.042V46.052h.561v3.955h-.538v-.449h-.044a.985.985,0,0,1-.893.5C359.351,50.054,358.894,49.484,358.894,48.583Zm.58,0c0,.6.284.966.76.966s.766-.368.766-.964-.3-.966-.766-.966-.76.366-.76.964Z"/><path class="cls-4" d="M363.874,48.583a1.348,1.348,0,0,1,2.683-.257,1.38,1.38,0,0,1,0,.257,1.348,1.348,0,1,1-2.683.261A1.262,1.262,0,0,1,363.874,48.583Zm2.105,0c0-.617-.277-.977-.763-.977s-.763.361-.763.977.275.979.763.979S365.979,49.2,365.979,48.583Z"/><path class="cls-4" d="M367.31,47.162h.54v.452h.042a.852.852,0,0,1,.849-.507.925.925,0,0,1,.992.853.939.939,0,0,1-.007.205v1.842h-.561v-1.7c0-.457-.2-.685-.614-.685a.652.652,0,0,0-.682.622.545.545,0,0,0,0,.1v1.664h-.561V47.162Z"/><path class="cls-4" d="M372.9,46.454v.721h.616v.473H372.9v1.463c0,.3.123.428.4.428a1.906,1.906,0,0,0,.214-.013v.468a1.842,1.842,0,0,1-.3.029c-.624,0-.873-.22-.873-.768V47.648h-.452v-.473h.452v-.721Z"/><path class="cls-4" d="M374.282,46.052h.556V47.62h.044a.876.876,0,0,1,.867-.51.937.937,0,0,1,.98,1.061v1.837h-.562v-1.7c0-.454-.212-.685-.608-.685a.665.665,0,0,0-.717.608.713.713,0,0,0,0,.113v1.661h-.561Z"/><path class="cls-4" d="M380,49.239a1.155,1.155,0,0,1-1.233.823,1.292,1.292,0,0,1-1.326-1.258,1.246,1.246,0,0,1,.012-.211,1.313,1.313,0,0,1,1.126-1.475,1.425,1.425,0,0,1,.185-.012c.792,0,1.269.541,1.269,1.434v.2h-2.009v.031a.751.751,0,0,0,.686.812l.071,0a.682.682,0,0,0,.677-.345Zm-1.974-.917h1.437a.686.686,0,0,0-.634-.735c-.022,0-.044,0-.066,0a.728.728,0,0,0-.737.718v.019Z"/></g><line class="cls-19" x1="16.205" y1="102.425" x2="16.205" y2="107.425"/><line class="cls-19" x1="13.705" y1="104.925" x2="18.612" y2="104.925"/><line class="cls-19" x1="87.498" y1="103.19" x2="83.962" y2="106.726"/><line class="cls-19" x1="83.962" y1="103.19" x2="87.433" y2="106.66"/><circle class="cls-7" cx="156.543" cy="15.333" r="5.4"/><line class="cls-7" x1="160.743" y1="19.533" x2="164.743" y2="23.533"/><line class="cls-7" x1="148.189" y1="5.433" x2="148.189" y2="10.433"/><line class="cls-7" x1="145.689" y1="7.933" x2="150.597" y2="7.933"/><rect class="cls-9" x="42.723" y="309.262" width="11.9" height="8.5"/><path class="cls-20" d="M45.923,309.262c0-2.5,1.2-4.6,2.7-4.6s2.7,2.1,2.7,4.6"/><circle class="cls-9" cx="87.087" cy="309.562" r="5.4"/><line class="cls-20" x1="82.887" y1="313.762" x2="78.887" y2="317.762"/><path class="cls-9" d="M125.452,317.762h-10v-2.8a3.9,3.9,0,0,1,3.9-3.9h2.2a3.9,3.9,0,0,1,3.9,3.9Z"/><circle class="cls-9" cx="120.352" cy="306.962" r="2.8"/><circle class="cls-9" cx="156.543" cy="309.562" r="5.4"/><line class="cls-20" x1="160.743" y1="313.762" x2="164.743" y2="317.762"/><line class="cls-20" x1="148.189" y1="299.662" x2="148.189" y2="304.662"/><line class="cls-20" x1="145.689" y1="302.162" x2="150.597" y2="302.162"/><rect class="cls-8" x="42.723" y="335.885" width="11.9" height="8.5"/><path class="cls-7" d="M45.923,335.885c0-2.5,1.2-4.6,2.7-4.6s2.7,2.1,2.7,4.6"/><circle class="cls-8" cx="87.087" cy="336.185" r="5.4"/><line class="cls-7" x1="82.887" y1="340.385" x2="78.887" y2="344.385"/><path class="cls-8" d="M125.452,344.385h-10v-2.8a3.9,3.9,0,0,1,3.9-3.9h2.2a3.9,3.9,0,0,1,3.9,3.9Z"/><circle class="cls-8" cx="120.352" cy="333.585" r="2.8"/><circle class="cls-8" cx="156.543" cy="336.185" r="5.4"/><line class="cls-7" x1="160.743" y1="340.385" x2="164.743" y2="344.385"/><line class="cls-7" x1="148.189" y1="326.285" x2="148.189" y2="331.285"/><line class="cls-7" x1="145.689" y1="328.785" x2="150.597" y2="328.785"/><line class="cls-19" x1="48.491" y1="104.925" x2="53.398" y2="104.925"/><line class="cls-19" x1="259.659" y1="102.471" x2="259.659" y2="107.379"/><line class="cls-7" x1="80.73" y1="59.448" x2="90.73" y2="69.448"/><line class="cls-7" x1="80.73" y1="69.448" x2="90.545" y2="59.633"/><line class="cls-7" x1="16.253" y1="59.427" x2="16.253" y2="69.616"/><line class="cls-7" x1="11.159" y1="64.522" x2="21.159" y2="64.522"/><line class="cls-7" x1="45.944" y1="64.522" x2="55.944" y2="64.522"/><line class="cls-7" x1="259.659" y1="70.752" x2="259.659" y2="57.152"/><polyline class="cls-7" points="124.516 61.554 120.516 65.554 116.516 61.554"/><polyline class="cls-7" points="151.302 66.537 155.302 62.537 159.302 66.537"/><polyline class="cls-7" points="192.088 68.537 188.088 64.537 192.088 60.537"/><polyline class="cls-7" points="222.873 60.537 226.873 64.537 222.873 68.537"/><polyline class="cls-19" points="123.016 103.675 120.516 106.175 118.016 103.675"/><polyline class="cls-19" points="152.802 106.175 155.302 103.675 157.802 106.175"/><polyline class="cls-19" points="191.338 107.425 188.838 104.925 191.338 102.425"/><polyline class="cls-19" points="223.623 102.425 226.123 104.925 223.623 107.425"/><line class="cls-20" x1="16.205" y1="174.949" x2="16.205" y2="179.949"/><line class="cls-20" x1="13.705" y1="177.449" x2="18.612" y2="177.449"/><line class="cls-20" x1="87.498" y1="175.714" x2="83.962" y2="179.249"/><line class="cls-20" x1="83.962" y1="175.714" x2="87.433" y2="179.184"/><line class="cls-20" x1="48.491" y1="177.449" x2="53.398" y2="177.449"/><line class="cls-20" x1="259.659" y1="174.995" x2="259.659" y2="179.903"/><line class="cls-20" x1="80.73" y1="131.972" x2="90.73" y2="141.972"/><line class="cls-20" x1="80.73" y1="141.972" x2="90.545" y2="132.157"/><line class="cls-20" x1="16.253" y1="131.951" x2="16.253" y2="142.14"/><line class="cls-20" x1="11.159" y1="137.046" x2="21.159" y2="137.046"/><line class="cls-20" x1="45.944" y1="137.046" x2="55.944" y2="137.046"/><line class="cls-20" x1="259.659" y1="143.276" x2="259.659" y2="129.676"/><polyline class="cls-20" points="124.516 134.078 120.516 138.078 116.516 134.078"/><polyline class="cls-20" points="151.302 139.061 155.302 135.061 159.302 139.061"/><polyline class="cls-20" points="192.088 141.061 188.088 137.061 192.088 133.061"/><polyline class="cls-20" points="222.873 133.061 226.873 137.061 222.873 141.061"/><polyline class="cls-20" points="123.016 176.199 120.516 178.699 118.016 176.199"/><polyline class="cls-20" points="152.802 178.699 155.302 176.199 157.802 178.699"/><polyline class="cls-20" points="191.338 179.949 188.838 177.449 191.338 174.949"/><polyline class="cls-20" points="223.623 174.949 226.123 177.449 223.623 179.949"/><rect x="219.114" y="10.612" width="11.262" height="11.262"/><polyline class="cls-21" points="220.671 18.28 224.745 14.206 228.818 18.28"/><polygon class="cls-7" points="264.943 14.093 264.943 21.841 254.076 21.841 254.076 14.093 259.509 9.642 264.943 14.093"/><polyline class="cls-8" points="255.998 15.741 255.998 11.648 263.02 11.648 263.02 15.741"/><polyline class="cls-7" points="254.076 14.093 259.509 18.544 264.943 14.093"/><polygon class="cls-8" points="259.447 15.5 262.897 15.5 261.172 17.022 259.447 18.544 257.723 17.022 255.998 15.5 259.447 15.5"/><path class="cls-4" d="M258.475,16.023V12.956h2.069v.362h-1.663v.95h1.439v.362h-1.439v1.393Z"/><line class="cls-22" x1="182.73" y1="12.223" x2="197.23" y2="12.223"/><line class="cls-22" x1="182.73" y1="16.023" x2="197.23" y2="16.023"/><line class="cls-22" x1="182.73" y1="19.823" x2="197.23" y2="19.823"/><rect class="cls-20" x="42.723" y="40.893" width="11.9" height="8.5"/><path class="cls-20" d="M45.923,40.893c0-2.5,1.2-4.6,2.7-4.6s2.7,2.1,2.7,4.6"/><circle class="cls-20" cx="87.087" cy="41.193" r="5.4"/><line class="cls-20" x1="82.887" y1="45.393" x2="78.887" y2="49.393"/><path class="cls-20" d="M125.452,49.393h-10v-2.8a3.9,3.9,0,0,1,3.9-3.9h2.2a3.9,3.9,0,0,1,3.9,3.9Z"/><circle class="cls-20" cx="120.352" cy="38.593" r="2.8"/><path class="cls-20" d="M22.078,38.1c-1.562-1.759-4.246-1.289-5.9.334-.015.015-.015.015-.03,0-1.638-1.623-4.337-2.093-5.9-.334-1.441,1.623-1.062,3.958.288,5.672a57.892,57.892,0,0,0,5.611,5.611c.015.015.015.015.03,0A48.436,48.436,0,0,0,21.79,43.77C23.109,42.026,23.519,39.721,22.078,38.1Z"/><circle class="cls-20" cx="156.543" cy="41.193" r="5.4"/><line class="cls-20" x1="160.743" y1="45.393" x2="164.743" y2="49.393"/><line class="cls-20" x1="148.189" y1="31.293" x2="148.189" y2="36.293"/><line class="cls-20" x1="145.689" y1="33.793" x2="150.597" y2="33.793"/><line class="cls-23" x1="182.73" y1="38.083" x2="197.23" y2="38.083"/><line class="cls-23" x1="182.73" y1="41.883" x2="197.23" y2="41.883"/><line class="cls-23" x1="182.73" y1="45.683" x2="197.23" y2="45.683"/><rect class="cls-7" x="13.409" y="281.725" width="5.4" height="6.7"/><rect class="cls-7" x="12.809" y="280.625" width="6.7" height="1.1"/><rect class="cls-7" x="15.509" y="279.925" width="1.3" height="0.7"/><line class="cls-7" x1="14.709" y1="282.825" x2="14.709" y2="287.325"/><line class="cls-7" x1="16.109" y1="282.825" x2="16.109" y2="287.325"/><line class="cls-7" x1="17.609" y1="282.825" x2="17.609" y2="287.325"/><rect class="cls-24" x="48.173" y="281.725" width="5.4" height="6.7"/><rect class="cls-24" x="47.573" y="280.625" width="6.7" height="1.1"/><rect class="cls-24" x="50.273" y="279.925" width="1.3" height="0.7"/><line class="cls-24" x1="49.473" y1="282.825" x2="49.473" y2="287.325"/><line class="cls-24" x1="50.873" y1="282.825" x2="50.873" y2="287.325"/><line class="cls-24" x1="52.373" y1="282.825" x2="52.373" y2="287.325"/><polygon class="cls-7" points="90.087 287.598 75.187 287.598 75.187 277.798 90.087 277.798 90.087 281.898 90.087 287.598"/><polygon class="cls-7" points="93.887 280.898 90.087 280.898 90.087 287.598 96.187 287.598 96.187 283.398 93.887 280.898"/><circle class="cls-25" cx="77.587" cy="287.998" r="1.5"/><circle class="cls-25" cx="93.787" cy="287.998" r="1.5"/><line class="cls-7" x1="75.187" y1="285.498" x2="89.987" y2="285.498"/><polygon class="cls-7" points="128.552 287.598 113.452 287.598 113.452 277.798 128.552 277.798 128.552 281.798 128.552 287.598"/><polygon class="cls-7" points="132.352 280.798 128.552 280.798 128.552 287.598 134.752 287.598 134.752 283.398 132.352 280.798"/><circle class="cls-25" cx="115.852" cy="287.998" r="1.5"/><circle class="cls-25" cx="132.352" cy="287.998" r="1.5"/><line class="cls-7" x1="113.452" y1="285.498" x2="128.452" y2="285.498"/><line class="cls-7" x1="112.352" y1="279.498" x2="108.952" y2="279.498"/><line class="cls-7" x1="112.352" y1="281.898" x2="107.552" y2="281.898"/><line class="cls-7" x1="112.352" y1="284.298" x2="106.152" y2="284.298"/><path class="cls-4" d="M14.159,199.975h.909l1.091,1.636,1.091-1.636h.909v4H17.25V201.43l-1.091,1.636h0l-1.091-1.636v2.545h-.909Z"/><path class="cls-26" d="M22.346,209a3.541,3.541,0,0,0-1-2.6,4,4,0,0,0-2.6-1,43.385,43.385,0,0,0-5.1,0,3.541,3.541,0,0,0-2.6,1,4,4,0,0,0-1,2.6,43.387,43.387,0,0,0,0,5.1,3.541,3.541,0,0,0,1,2.6,4,4,0,0,0,2.6,1,43.385,43.385,0,0,0,5.1,0,3.541,3.541,0,0,0,2.6-1,4,4,0,0,0,1-2.6V209Z"/><circle class="cls-2" cx="19.446" cy="208.2" r="0.7"/><path class="cls-6" d="M16.246,214.1a2.5,2.5,0,1,1,2.5-2.5,2.476,2.476,0,0,1-2.5,2.5Z"/><path d="M189.6,344.179l-3.738-3.738a.7.7,0,0,1,.995-.995l3.241,3.241,8.43-8.431a.7.7,0,1,1,.995.995l-8.928,8.928A.7.7,0,0,1,189.6,344.179Z"/><path class="cls-4" d="M189.6,314.179l-3.738-3.738a.7.7,0,0,1,.995-.995l3.241,3.241,8.43-8.431a.7.7,0,1,1,.995.995l-8.928,8.928A.7.7,0,0,1,189.6,314.179Z"/></svg>